<svg xmlns="http://www.w3.org/2000/svg" viewBox="0 0 128 128" role="img" aria-labelledby="t d"><title id="t">Yellow banana</title><desc id="d">A curved ripe banana with golden peel, pale highlight, and small brown tips.</desc>
<path d="M25 34q-3-8 4-11l8 4m59 65 8 4q7 1 5 9l-9 5" fill="none" stroke="#fbf8f1" stroke-width="11" stroke-linecap="round"/><path d="M25 34q-3-8 4-11l8 4m59 65 8 4q7 1 5 9l-9 5" fill="none" stroke="#3a3631" stroke-width="3" stroke-linecap="round"/><path d="M36 28q16 31 44 41 17 6 31-2-3 25-26 39-25 14-51-7Q14 77 25 39Z" fill="#fbf8f1" stroke="#fbf8f1" stroke-width="11" stroke-linejoin="round"/><path d="M36 28q16 31 44 41 17 6 31-2-3 25-26 39-25 14-51-7Q14 77 25 39Z" fill="#e8c768" stroke="#3a3631" stroke-width="3" stroke-linejoin="round"/><path d="M29 45q-3 22 18 38 20 15 43 10 10-2 16-8-5 17-23 24-24 9-44-10Q15 75 29 45Z" fill="#f3dc8c"/><path d="M78 69q19 9 33-3-3 25-26 39-8 5-18 6 21-18 11-42Z" fill="#b69a48" opacity=".25"/></svg>
