<svg xmlns="http://www.w3.org/2000/svg" viewBox="0 0 128 128" role="img" aria-labelledby="t d">
<title id="t">Little cow</title><desc id="d">A friendly cream cow face with small horns, spotted ears, and a soft pink muzzle.</desc>
<path d="M38 43 30 29Q27 22 35 25L52 38M90 43l8-14q3-7-5-4L76 38" fill="none" stroke="#fbf8f1" stroke-width="14" stroke-linecap="round" stroke-linejoin="round"/><path d="M38 43 30 29Q27 22 35 25L52 38M90 43l8-14q3-7-5-4L76 38" fill="none" stroke="#d6b66d" stroke-width="7" stroke-linecap="round" stroke-linejoin="round"/>
<path d="M24 56Q24 35 45 35H83Q104 35 104 56v28q-2 28-40 31Q26 112 24 84Z" fill="#fbf8f1" stroke="#fbf8f1" stroke-width="11" stroke-linejoin="round"/><path d="M24 56Q24 35 45 35H83Q104 35 104 56v28q-2 28-40 31Q26 112 24 84Z" fill="#f5ead3" stroke="#3a3631" stroke-width="3" stroke-linejoin="round"/>
<path d="M32 45q7-10 20-3l-5 19q-14 4-20-5Zm49-5q17-6 20 8l-8 14-16-7Z" fill="#3a3631"/><ellipse cx="47" cy="70" rx="3.4" ry="4.4" fill="#2b2a28"/><ellipse cx="81" cy="70" rx="3.4" ry="4.4" fill="#2b2a28"/><ellipse cx="64" cy="88" rx="22" ry="13" fill="#e8a39e"/><ellipse cx="56" cy="88" rx="2.5" ry="3.5" fill="#8e5d59"/><ellipse cx="72" cy="88" rx="2.5" ry="3.5" fill="#8e5d59"/><path d="M90 80q9 11 4 23-5 7-11 6Z" fill="#b8a58b" opacity=".25"/>
</svg>
