<svg xmlns="http://www.w3.org/2000/svg" viewBox="0 0 128 128" role="img" aria-labelledby="t d">
<title id="t">Little frog</title><desc id="d">A bright moss-green frog with raised round eyes, a cream belly, and folded feet.</desc>
<path d="M43 91q-10 5-20 13-5 6 1 10 12 4 26-5l8-9m27-9q10 5 20 13 5 6-1 10-12 4-26-5l-8-9Z" fill="#fbf8f1" stroke="#fbf8f1" stroke-width="11" stroke-linejoin="round"/><path d="M43 91q-10 5-20 13-5 6 1 10 12 4 26-5l8-9m27 0q10 5 20 13 5 6-1 10-12 4-26-5l-8-9Z" fill="#7fa37a" stroke="#3a3631" stroke-width="3" stroke-linejoin="round"/>
<path d="M34 59Q28 41 42 38q11-3 16 12h12q5-15 16-12 14 3 8 21 10 8 7 24-5 25-37 26-32-1-37-26-3-15 7-24Z" fill="#fbf8f1" stroke="#fbf8f1" stroke-width="11" stroke-linejoin="round"/><path d="M34 59Q28 41 42 38q11-3 16 12h12q5-15 16-12 14 3 8 21 10 8 7 24-5 25-37 26-32-1-37-26-3-15 7-24Z" fill="#7fa37a" stroke="#3a3631" stroke-width="3" stroke-linejoin="round"/><ellipse cx="64" cy="87" rx="20" ry="15" fill="#c9d5a7"/><circle cx="44" cy="47" r="8" fill="#fbf8f1" stroke="#3a3631" stroke-width="2"/><circle cx="84" cy="47" r="8" fill="#fbf8f1" stroke="#3a3631" stroke-width="2"/><circle cx="45" cy="47" r="3" fill="#2b2a28"/><circle cx="83" cy="47" r="3" fill="#2b2a28"/><path d="M50 72q14 11 28 0" fill="none" stroke="#3a3631" stroke-width="2" stroke-linecap="round"/><path d="M83 83q13 8 9 22-4 5-12 5Z" fill="#55734f" opacity=".25"/>
</svg>
