<svg xmlns="http://www.w3.org/2000/svg" viewBox="0 0 128 128" role="img" aria-labelledby="t d"><title id="t">Carrot</title><desc id="d">An orange tapered carrot with leafy green top and short ridges.</desc><path d="M45 41q22-7 40 8l-28 59q-6 11-10-2L34 58q-2-12 11-17Z" fill="#fbf8f1" stroke="#fbf8f1" stroke-width="10"/><path d="M45 41q22-7 40 8l-28 59q-6 11-10-2L34 58q-2-12 11-17Z" fill="#e58b43" stroke="#3a3631" stroke-width="2.7"/><path d="M60 40Q38 29 39 16q13 6 24 22-6-21 5-27 6 12-1 28 11-18 24-16-4 13-21 19" fill="#7fa37a" stroke="#3a3631" stroke-width="2.5"/><path d="m43 57 12-1m-7 15 10-2m-6 16 8-2" stroke="#bd6939" stroke-width="2.5" stroke-linecap="round"/></svg>
