<svg xmlns="http://www.w3.org/2000/svg" viewBox="0 0 128 128" role="img" aria-labelledby="t d"><title id="t">Little crab</title><desc id="d">A coral crab with domed shell, raised claws, and curved legs.</desc><path d="M31 64Q32 43 64 42q32 1 33 22l-6 27q-27 17-54 0Z" fill="#fbf8f1" stroke="#fbf8f1" stroke-width="10" stroke-linejoin="round" stroke-linecap="round"/><path d="M31 64Q32 43 64 42q32 1 33 22l-6 27q-27 17-54 0Z" fill="#d9785c" stroke="#3a3631" stroke-width="2.7" stroke-linejoin="round" stroke-linecap="round"/><path d="M34 59 22 46m72 13 12-13M28 45q-8-11 2-15 9-3 12 8l-4 12m58-5 4-12q3-11 12-8 10 4 2 15l-12 9M40 91l-8 12m21-8-4 12m39-16 8 12m-21-8 4 12" fill="none" stroke="#3a3631" stroke-width="4" stroke-linecap="round"/><ellipse cx="52" cy="64" rx="2.7" ry="3.4" fill="#2b2a28"/><ellipse cx="76" cy="64" rx="2.7" ry="3.4" fill="#2b2a28"/></svg>
