<svg xmlns="http://www.w3.org/2000/svg" viewBox="0 0 128 128" role="img" aria-labelledby="t d"><title id="t">Tuft of grass</title><desc id="d">A fresh green tuft with three individually curved blades.</desc><path d="M22 102Q27 66 42 42q2 33 6 49Q50 52 65 27q3 40 1 64Q78 54 96 43 90 79 78 101Z" fill="#fbf8f1" stroke="#fbf8f1" stroke-width="10" stroke-linejoin="round"/><path d="M22 102Q27 66 42 42q2 33 6 49Q50 52 65 27q3 40 1 64Q78 54 96 43 90 79 78 101Z" fill="#7fa37a" stroke="#3a3631" stroke-width="2.7" stroke-linejoin="round"/><path d="M31 96q7-23 12-34m11 30q4-32 11-48m6 49q8-25 19-34" fill="none" stroke="#b4c79b" stroke-width="4" stroke-linecap="round"/><path d="M22 103q29 9 57-1" fill="none" stroke="#fbf8f1" stroke-width="10"/><path d="M22 103q29 9 57-1" fill="none" stroke="#3a3631" stroke-width="2.7"/></svg>
