<svg xmlns="http://www.w3.org/2000/svg" viewBox="0 0 128 128" role="img" aria-labelledby="t d"><title id="t">Little penguin</title><desc id="d">A charcoal penguin with white belly, orange beak, and feet.</desc><path d="M64 22q32 2 34 39l-4 38q-10 16-30 17-20-1-30-17l-4-38q2-37 34-39Z" fill="#fbf8f1" stroke="#fbf8f1" stroke-width="10" stroke-linejoin="round" stroke-linecap="round"/><path d="M64 22q32 2 34 39l-4 38q-10 16-30 17-20-1-30-17l-4-38q2-37 34-39Z" fill="#48545a" stroke="#3a3631" stroke-width="2.7" stroke-linejoin="round" stroke-linecap="round"/><path d="M64 43q23 0 24 27l-4 27q-9 10-20 10-11 0-20-10l-4-27q1-27 24-27Z" fill="#fbf8f1"/><path d="M33 63Q17 74 31 94l12-7m52-24q16 11 2 31l-12-7" fill="#48545a" stroke="#3a3631" stroke-width="2.4"/><path d="m57 66 14 0-7 8Z" fill="#e8c768"/><path d="M47 111q-8 6-2 9h17l2-7m3 0 2 7h17q6-3-2-9" fill="#d9785c" stroke="#3a3631" stroke-width="2"/><ellipse cx="56" cy="58" rx="2.8" ry="3.5" fill="#2b2a28"/><ellipse cx="72" cy="58" rx="2.8" ry="3.5" fill="#2b2a28"/></svg>
