<svg xmlns="http://www.w3.org/2000/svg" viewBox="0 0 128 128" role="img" aria-labelledby="t d">
<title id="t">Red apple</title><desc id="d">A round red apple with a short brown stem and a fresh green leaf.</desc>
<path d="M64 40q-8-15-4-24m4 26q14-17 29-9" fill="none" stroke="#fbf8f1" stroke-width="11" stroke-linecap="round"/><path d="M64 40q-8-15-4-24" fill="none" stroke="#79563e" stroke-width="5" stroke-linecap="round"/><path d="M64 38q14-17 29-9-10 17-29 9Z" fill="#7fa37a" stroke="#3a3631" stroke-width="2.5" stroke-linejoin="round"/><path d="M64 42Q48 29 35 39 14 44 20 74q5 34 32 42 8 2 12-3 5 5 13 3 28-8 32-42 6-30-15-35-14-5-30 3Z" fill="#fbf8f1" stroke="#fbf8f1" stroke-width="11" stroke-linejoin="round"/><path d="M64 42Q48 29 35 39 14 44 20 74q5 34 32 42 8 2 12-3 5 5 13 3 28-8 32-42 6-30-15-35-14-5-30 3Z" fill="#d9785c" stroke="#3a3631" stroke-width="3" stroke-linejoin="round"/><path d="M39 53q-12 19-4 35 3 6 8 6-5-20 5-38Z" fill="#f3a28a"/><path d="M83 76q19 10 13 32-6 7-17 8Z" fill="#a95342" opacity=".25"/>
</svg>
