<svg xmlns="http://www.w3.org/2000/svg" viewBox="0 0 128 128" role="img" aria-labelledby="t d"><title id="t">Bicycle</title><desc id="d">A sturdy moss-green bicycle with dark filled wheels, chunky frame, seat, and handlebars.</desc>
<circle cx="31" cy="87" r="23" fill="#fbf8f1" stroke="#fbf8f1" stroke-width="11"/><circle cx="31" cy="87" r="23" fill="#3a3631" stroke="#3a3631" stroke-width="3"/><circle cx="31" cy="87" r="14" fill="#b9b2a4"/><circle cx="31" cy="87" r="5" fill="#fbf8f1" stroke="#3a3631" stroke-width="2"/><circle cx="97" cy="87" r="23" fill="#fbf8f1" stroke="#fbf8f1" stroke-width="11"/><circle cx="97" cy="87" r="23" fill="#3a3631" stroke="#3a3631" stroke-width="3"/><circle cx="97" cy="87" r="14" fill="#b9b2a4"/><circle cx="97" cy="87" r="5" fill="#fbf8f1" stroke="#3a3631" stroke-width="2"/>
<path d="m31 87 20-32 19 32H31l25-21 20 21m-25-32h14m-4 0-4-8m38 40-12-32h13m-11 0 7-7" fill="none" stroke="#3a3631" stroke-width="10" stroke-linecap="round" stroke-linejoin="round"/><path d="m31 87 20-32 19 32H31l25-21 20 21" fill="none" stroke="#7fa37a" stroke-width="5" stroke-linecap="round" stroke-linejoin="round"/><circle cx="56" cy="66" r="6" fill="#e8c768" stroke="#3a3631" stroke-width="2.5"/><path d="M77 78q16 16 22 14-5 18-22 9Z" fill="#496844" opacity=".25"/></svg>
