<svg xmlns="http://www.w3.org/2000/svg" viewBox="0 0 128 128" role="img" aria-labelledby="t d">
<title id="t">Little duck</title><desc id="d">A round butter-yellow duck with a small orange bill, wing, and webbed feet.</desc>
<path d="M27 82q-8 18-2 27h26l-1-16m27-1-1 17h27q6-9-3-27" fill="none" stroke="#fbf8f1" stroke-width="14" stroke-linecap="round"/><path d="M27 82q-8 18-2 27h26l-1-16m27-1-1 17h27q6-9-3-27" fill="none" stroke="#d9785c" stroke-width="6" stroke-linecap="round"/>
<path d="M29 74Q18 67 19 58q1-8 14-8 2-27 31-29 34-2 43 27 5 27-15 43-24 18-50 4-10-6-13-21Z" fill="#fbf8f1" stroke="#fbf8f1" stroke-width="11" stroke-linejoin="round"/><path d="M29 74Q18 67 19 58q1-8 14-8 2-27 31-29 34-2 43 27 5 27-15 43-24 18-50 4-10-6-13-21Z" fill="#e8c768" stroke="#3a3631" stroke-width="3" stroke-linejoin="round"/>
<path d="M29 55 10 61q-4 3 0 7l21 4Z" fill="#fbf8f1" stroke="#fbf8f1" stroke-width="9" stroke-linejoin="round"/><path d="M29 55 10 61q-4 3 0 7l21 4Z" fill="#d9785c" stroke="#3a3631" stroke-width="2.5" stroke-linejoin="round"/><path d="M47 65q22-21 40 0-9 21-30 15-9-3-10-15Z" fill="#f5df9c"/><path d="M87 79q19 5 20-8 1 21-14 27Z" fill="#b59948" opacity=".25"/><circle cx="76" cy="45" r="4" fill="#2b2a28"/>
</svg>
