<svg xmlns="http://www.w3.org/2000/svg" viewBox="0 0 128 128" role="img" aria-labelledby="t d">
<title id="t">Little elephant</title><desc id="d">A soft blue-gray elephant with broad ears, tiny tusks, and a curled trunk.</desc>
<path d="M42 53Q18 31 15 54q-3 26 25 31m46-32q24-22 27 1 3 26-25 31" fill="#fbf8f1" stroke="#fbf8f1" stroke-width="13" stroke-linecap="round"/><path d="M42 53Q18 31 15 54q-3 26 25 31m46-32q24-22 27 1 3 26-25 31" fill="#8db4c9" stroke="#3a3631" stroke-width="3" stroke-linecap="round"/><path d="M64 31Q34 29 33 59v23q0 26 31 26t31-26V59Q94 31 64 31Z" fill="#fbf8f1" stroke="#fbf8f1" stroke-width="11" stroke-linejoin="round"/><path d="M64 31Q34 29 33 59v23q0 26 31 26t31-26V59Q94 31 64 31Z" fill="#a9c7d2" stroke="#3a3631" stroke-width="3" stroke-linejoin="round"/><path d="M55 75q-7 14-4 28 3 12 15 9 8-2 4-9-3-4-8 0" fill="none" stroke="#fbf8f1" stroke-width="14" stroke-linecap="round"/><path d="M55 75q-7 14-4 28 3 12 15 9 8-2 4-9-3-4-8 0" fill="none" stroke="#8db4c9" stroke-width="8" stroke-linecap="round"/><path d="m43 79-7 12q5 7 10 0m40 0 7-12" fill="#fbf8f1" stroke="#3a3631" stroke-width="2"/><circle cx="51" cy="61" r="3.5" fill="#2b2a28"/><circle cx="77" cy="61" r="3.5" fill="#2b2a28"/><path d="M90 79q8 8 4 23-3 5-9 6Z" fill="#718f9a" opacity=".25"/>
</svg>
