<svg xmlns="http://www.w3.org/2000/svg" viewBox="0 0 128 128" role="img" aria-labelledby="t d"><title id="t">Little fish</title><desc id="d">A cheerful clay-colored fish with a cream belly and a rounded tail.</desc>
 <g stroke="#fbf8f1" stroke-width="11" stroke-linejoin="round"><path d="M85 64q19-23 29-18v36q-10 5-29-18Z"/><path d="M20 64q15-30 46-30 32 0 43 30-11 30-43 30-31 0-46-30Z"/></g><path d="M85 64q19-23 29-18v36q-10 5-29-18Z" fill="#bd624c" stroke="#3a3631" stroke-width="3"/><path d="M20 64q15-30 46-30 32 0 43 30-11 30-43 30-31 0-46-30Z" fill="#d9785c" stroke="#3a3631" stroke-width="3"/><path d="M56 67q30-4 47 7-6 15-26 20-17 4-29-1Z" fill="#f5dfc8"/><path d="M75 73q29 2 27 9-7 13-25 13Z" fill="#a95342" opacity=".25"/><path d="M51 53q16 6 0 17-12-6 0-17Z" fill="#f3b39c" stroke="#3a3631" stroke-width="2"/><circle cx="79" cy="57" r="3.2" fill="#2b2a28"/><path d="M88 64q8 6 0 11" fill="none" stroke="#3a3631" stroke-width="2" stroke-linecap="round"/><path d="M41 41q10 9 7 18m5-23q9 12 5 20" fill="none" stroke="#f4b098" stroke-width="3" stroke-linecap="round"/></svg>
