<svg xmlns="http://www.w3.org/2000/svg" viewBox="0 0 128 128"><g stroke="#3a3631" stroke-width="3" stroke-linejoin="round" stroke-linecap="round"><path fill="#fbf8f1" d="M91 19Q45 14 29 53t7 61q38 8 62-22-33 10-42-20T91 19z"/><path fill="#f2e5c7" d="M84 25Q48 21 34 55t5 53q28 5 48-17-29 6-36-20t33-46z"/><path fill="#d9caa8" opacity=".28" stroke="none" d="M58 75q20-19 39-10-5 20-23 29-12-3-16-19"/><ellipse cx="53" cy="58" rx="2.5" ry="4" fill="#3a3631" stroke="none"/><ellipse cx="68" cy="54" rx="2.5" ry="4" fill="#3a3631" stroke="none"/><path d="M57 68q6 5 12-1" fill="none" stroke-width="2"/></g><circle cx="47" cy="68" r="3" fill="#d9785c" opacity=".45"/><circle cx="71" cy="64" r="3" fill="#d9785c" opacity=".45"/><path d="m99 28 2 5 5 2-5 2-2 5-2-5-5-2 5-2zM27 32l1.5 4 4 1.5-4 1.5-1.5 4-1.5-4-4-1.5 4-1.5z" fill="#e8c768" stroke="#3a3631" stroke-width="1.5"/></svg>
